# xmcd
#
# Track frame offsets:
#	150
#	12257
#	39267
#	65163
#	79894
#	108149
#	124232
#	147814
#	167840
#	181506
#
# Disc length: 2690 seconds
#
# Revision: 1
# Processed by: cddbd v1.5.1PL0 Copyright (c) Steve Scherf et al.
# Submitted via: audiograbber 1.83.01
#
DISCID=7b0a800a
DTITLE=Albert C. Humphrey - Changing Times
DYEAR=2001
DGENRE=Blues
TTITLE0=I Found You
TTITLE1=Never Good Enough
TTITLE2=Berrus
TTITLE3=I Miss You
TTITLE4=More On Up
TTITLE5=It Should Have Been You
TTITLE6=My Life
TTITLE7=Changing Times
TTITLE8=With You
TTITLE9=One Day There'll Be Peace
EXTD=
EXTT0=
EXTT1=
EXTT2=
EXTT3=
EXTT4=
EXTT5=
EXTT6=
EXTT7=
EXTT8=
EXTT9=
PLAYORDER=
